:FULLY-SPECIFIED
:FORCE-ALL-JOINTS-BE-3DOF
:DEGREES
442
root 1.48949 15.2316 -9.1147 5.49212 4.83139 -13.5423
lfemur -46.8501 16.8114 3.9745
ltibia 62.9553 0 0
lfoot -24.9916 -10.2701 0
ltoes -12.7255 0 0
rfemur -14.9411 -3.44768 8.90199
rtibia 38.8284 0 0
rfoot -14.6389 -13.9723 0
rtoes -49.791 0 0
lowerback 6.02945 1.6015 4.3986
upperback 1.01281 2.43843 0.924751
thorax -2.1908 1.18676 -1.7001
lowerneck -7.15866 0.0337935 5.62298
upperneck 0.687406 -0.434285 0.0690367
head 1.41974 -0.189785 -0.949097
lclavicle 2.90226e-14 6.36111e-15 0
lhumerus -39.6318 -28.4329 97.6213
lradius 54.1431 0 0
lwrist 7.92235 0 0
lhand -20.0855 -1.30814 0
lfingers 7.12502 0 0
lthumb 6.25724 28.5794 0
rclavicle 2.90226e-14 6.36111e-15 0
rhumerus -48.3514 -2.52445 -89.7222
rradius 66.3347 0 0
rwrist 12.906 0 0
rhand -30.9208 -29.1118 0
rfingers 7.12502 0 0
rthumb -4.20662 -779.05 0
443
root 1.46996 15.2351 -9.05714 5.45125 6.67593 -13.6948
lfemur -47.418 17.0939 3.53686
ltibia 63.009 -0 0
lfoot -24.9732 -10.4555 -0.00892899
ltoes -12.2551 0 0
rfemur -13.9535 -3.30033 8.99391
rtibia 38.3678 -0 0
rfoot -13.9913 -14.3063 -0.0617023
rtoes -51.1182 0 0
lowerback 5.85656 1.53254 4.47512
upperback 0.940981 2.34643 1.01083
thorax -2.17414 1.14088 -1.64678
lowerneck -7.19929 -0.171672 5.46783
upperneck 0.666057 -0.697805 0.146538
head 1.40955 -0.321861 -0.908664
lclavicle 2.84006e-14 4.97146e-15 -1.02968e-30
lhumerus -39.7426 -28.4915 97.8836
lradius 54.1946 -0 0
lwrist 7.60619 0 0
lhand -20.1941 -1.66062 0.0110706
lfingers 7.12502 -0 0
lthumb 6.15248 28.2301 0.0108986
rclavicle 2.84006e-14 4.97146e-15 -1.02968e-30
rhumerus -48.5846 -2.74793 -89.4834
rradius 66.1624 -0 0
rwrist 12.8522 0 0
rhand -30.9813 -29.335 -0.00341074
rfingers 7.12502 -0 0
rthumb -4.26507 -59.2723 -0.00328379
444
root 1.46285 15.2454 -8.99702 5.40359 8.54576 -13.8259
lfemur -47.964 17.4026 2.92765
ltibia 63.0034 -0 0
lfoot -24.9034 -10.5176 -0.0123086
ltoes -11.6003 0 0
rfemur -12.9293 -3.17224 9.12692
rtibia 37.9009 -0 0
rfoot -13.0073 -14.6244 -0.120202
rtoes -52.2279 0 0
lowerback 5.64705 1.46137 4.55974
upperback 0.861312 2.24984 1.09918
thorax -2.14531 1.09288 -1.59509
lowerneck -7.24248 -0.380089 5.31493
upperneck 0.668889 -0.965705 0.21225
head 1.40852 -0.455726 -0.872685
lclavicle 2.67826e-14 3.50011e-15 -2.09609e-30
lhumerus -39.9147 -28.4774 98.1794
lradius 54.1976 -0 0
lwrist 7.26589 0 0
lhand -20.3772 -2.10025 0.0239646
lfingers 7.12502 -0 0
lthumb 5.97585 27.7974 0.0240465
rclavicle 2.67826e-14 3.50011e-15 -2.09609e-30
rhumerus -48.8586 -2.96971 -89.1665
rradius 65.9682 -0 0
rwrist 12.7606 0 0
rhand -31.052 -29.5359 -0.00702311
rfingers 7.12502 -0 0
rthumb -4.33333 -59.4723 -0.0067604
445
root 1.46729 15.2619 -8.93461 5.34984 10.4367 -13.9367
lfemur -48.4889 17.7277 2.16243
ltibia 62.9423 -0 0
lfoot -24.7871 -10.4672 -0.0107482
ltoes -10.7785 0 0
rfemur -11.8799 -3.06314 9.29647
rtibia 37.4357 -0 0
rfoot -11.7204 -14.9248 -0.172217
rtoes -53.1319 0 0
lowerback 5.40513 1.38847 4.65081
upperback 0.774781 2.14926 1.18913
thorax -2.10561 1.04302 -1.5449
lowerneck -7.2879 -0.59107 5.16412
upperneck 0.694068 -1.23745 0.26709
head 1.41599 -0.591134 -0.840802
lclavicle 2.42703e-14 1.96098e-15 -3.1491e-30
lhumerus -40.1415 -28.3975 98.505
lradius 54.1572 -0 0
lwrist 6.90517 0 0
lhand -20.6245 -2.61638 0.037192
lfingers 7.12502 -0 0
lthumb 5.73739 27.2911 0.037956
rclavicle 2.42703e-14 1.96098e-15 -3.1491e-30
rhumerus -49.1691 -3.18658 -88.7804
rradius 65.7549 -0 0
rwrist 12.6362 0 0
rhand -31.1307 -29.7151 -0.010792
rfingers 7.12502 -0 0
rthumb -4.4093 -59.6506 -0.0103864
